<?xml version="1.0" encoding="UTF-8"?>
<svg id="Layer_2" data-name="Layer 2" xmlns="http://www.w3.org/2000/svg" viewBox="0 0 106.81 106.14">
  <defs>
    <style>
      .cls-1 {
        fill: #fff;
      }

      .cls-2 {
        fill: #1762e5;
      }
    </style>
  </defs>
  <g id="Layer_1-2" data-name="Layer 1">
    <g>
      <path class="cls-2" d="M53.8,0C21.59,.02-3.81,28.37,1.62,60.05c2.03,11.82,4.28,22.72-1.05,34.08-1.64,3.49,.33,5.28,4.49,4.95,4.07-.33,8.13-.92,12.17-1.54,4.16-.64,7.84-.19,11.66,2.13,7.81,4.74,16.64,6.58,25.69,6.47,29.13-.34,52.43-24.45,52.22-53.74C106.61,23.43,82.88-.02,53.8,0Z"/>
      <path class="cls-1" d="M64.11,88.26l-14.25-11.33c-.95-.75-2.21-.99-3.37-.64l-17.41,5.31c-2.92,.89-5.6-1.95-4.53-4.81l6.37-17.05c.42-1.14,.26-2.41-.43-3.4l-10.43-14.91c-1.75-2.5,.13-5.93,3.18-5.79l18.18,.79c1.21,.05,2.37-.49,3.1-1.46l10.96-14.53c1.84-2.44,5.68-1.71,6.49,1.23l4.87,17.54c.32,1.17,1.2,2.1,2.35,2.5l17.21,5.93c2.89,1,3.38,4.87,.83,6.56l-15.18,10.05c-1.01,.67-1.63,1.79-1.65,3.01l-.32,18.2c-.05,3.05-3.59,4.72-5.98,2.82Z"/>
    </g>
  </g>
</svg>